<?xml version="1.0" encoding="utf-8"?>
<svg viewBox="0 0 45 45" xmlns="http://www.w3.org/2000/svg" xmlns:bx="https://boxy-svg.com">
  <path d="M 19.317 20.5 m -10.5 0 a 10.5 10.5 0 1 0 21 0 a 10.5 10.5 0 1 0 -21 0 Z M 19.317 20.5 m -8 0 a 8 8 0 0 1 16 0 a 8 8 0 0 1 -16 0 Z" style="fill: rgb(255, 255, 255);" bx:shape="ring 19.317 20.5 8 8 10.5 10.5 1@43c5ba57"/>
  <path style="fill: rgb(255, 255, 255);" transform="matrix(1, -0.000062, 0.00013, 2.111055, -268.266754, -1345.401611)" d="M 287.733 642.857 A 4.332 4.332 0 1 1 287.733 651.143 A 4.153 4.153 0 0 0 287.733 642.857 Z" bx:shape="crescent 289 647 4.332 214 0.8 1@40be65da"/>
  <path style="fill: rgb(255, 255, 255);" transform="matrix(-1, -0.000062, -0.00013, 2.111055, 307.366364, -1345.401611)" d="M 287.733 642.857 A 4.332 4.332 0 1 1 287.733 651.143 A 4.153 4.153 0 0 0 287.733 642.857 Z" bx:shape="crescent 289 647 4.332 214 0.8 1@40be65da"/>
  <path style="fill: rgb(255, 255, 255);" transform="matrix(0.000039, 0.630736, -1.552126, 0.000096, 1023.520508, -168.780655)" d="M 287.733 642.857 A 4.332 4.332 0 1 1 287.733 651.143 A 4.153 4.153 0 0 0 287.733 642.857 Z" bx:shape="crescent 289 647 4.332 214 0.8 1@40be65da"/>
  <path style="fill: rgb(255, 255, 255);" transform="matrix(0.000039, -0.630736, -1.552126, -0.000096, 1023.520569, 209.50647)" d="M 287.733 642.857 A 4.332 4.332 0 1 1 287.733 651.143 A 4.153 4.153 0 0 0 287.733 642.857 Z" bx:shape="crescent 289 647 4.332 214 0.8 1@40be65da"/>
  <rect x="9.857" y="20.054" width="18.485" height="1.299" style="fill: rgb(255, 255, 255);"/>
  <polygon style="fill: rgb(255, 255, 255);" points="25.68400001525879 35.132999420166016 35.60200119018555 27.6510009765625 34.297000885009766 24.606000900268555 32.03499984741211 22.430999755859375 28.642000198364258 21.299999237060547 28.381000518798828 22.691999435424805 31.433000564575195 23.59600067138672 33.13199996948242 25.60099983215332 33.69499969482422 27.125 27.64299964904785 31.645999908447266 26.72800064086914 29.826000213623047 24.988000869750977 28.17300033569336 24.118000030517578 29.1299991607666 25.767000198364258 30.783000946044922 26.466999053955078 32.43600082397461 24.69300079345703 34.0359992980957"/>
</svg>