<?xml version="1.0" encoding="utf-8"?>
<svg viewBox="0 0 20 20" xmlns="http://www.w3.org/2000/svg" xmlns:bx="https://boxy-svg.com">
  <path d="M 14.165 12.168 L 15.434 12.168 L 15.434 15.805 L 14.165 15.805 L 14.165 12.168 Z M 16.183 12.168 L 16.183 15.819 L 19 17.074 L 19 10.906 L 16.183 12.168 Z M 3.952 9.622 C 3.575 9.622 3.239 9.921 3.239 10.335 L 3.239 17.681 C 3.239 18.059 3.539 18.394 3.952 18.394 L 12.739 18.394 C 13.117 18.394 13.452 18.094 13.452 17.681 L 13.452 10.335 C 13.452 9.957 13.152 9.622 12.739 9.622 L 11.932 9.622 L 4.651 9.622 L 3.952 9.622 Z M 4.637 1.606 C 6.648 1.606 8.274 3.232 8.274 5.243 C 8.274 7.254 6.648 8.88 4.637 8.88 C 2.626 8.88 1 7.254 1 5.243 C 1 3.232 2.626 1.606 4.637 1.606 Z M 11.925 1.606 C 13.937 1.606 15.563 3.232 15.563 5.243 C 15.563 7.254 13.937 8.88 11.925 8.88 C 9.915 8.88 8.288 7.254 8.288 5.243 C 8.288 3.232 9.915 1.606 11.925 1.606 Z" style="fill: rgb(255, 255, 255); stroke: rgb(102, 102, 102);"/>
</svg>
