<?xml version="1.0" encoding="utf-8"?>
<svg viewBox="0 0 35 20" xmlns="http://www.w3.org/2000/svg" xmlns:bx="https://boxy-svg.com">
  <defs>
    <bx:grid x="-0.2" y="-0.2" width="100" height="100"/>
  </defs>
  <rect width="35" height="20" style="fill: rgb(143, 143, 143);"/>
  <path style="fill: rgb(216, 216, 216); stroke: rgb(0, 0, 0);" d="M 15.607 16.566" transform="matrix(1, 0, 0, 1, 52.092405, 36.092992)"/>
  <path d="M 7.641 -0.114 H 15.674 L 15.674 -1.78 L 19.641 0.72 L 15.674 3.22 L 15.674 1.554 H 7.641 V -0.114 Z" style="stroke-width: 0px; stroke: rgb(255, 255, 255); fill: rgb(255, 255, 255);" transform="matrix(-0.000046, 1, -1, -0.000046, 28.54022, -3.640967)" bx:shape="arrow 7.641 -1.78 12 5 1.667 3.967 0 1@b2652960"/>
  <line style="stroke-linecap: round; stroke: rgb(255, 255, 255);" x1="18.675" y1="13.793" x2="23.518" y2="13.793"/>
  <line style="stroke-linecap: round; stroke: rgb(255, 255, 255);" x1="18.675" y1="7.849" x2="23.518" y2="7.849"/>
  <line style="stroke-linecap: round; stroke: rgb(255, 255, 255);" x1="18.675" y1="13.793" x2="23.518" y2="7.849"/>
  <line style="stroke-linecap: round; stroke: rgb(255, 255, 255);" x1="10.69" y1="13.793" x2="13.919" y2="5.207"/>
  <line style="stroke-linecap: round; stroke: rgb(255, 255, 255);" x1="13.918" y1="5.207" x2="17.146" y2="13.793" transform="matrix(-1, 0, 0, -1, 31.064, 19)"/>
  <line style="stroke-linecap: round; stroke: rgb(255, 255, 255);" x1="11.937" y1="11.298" x2="15.9" y2="11.298"/>
  <line style="stroke-linecap: round; stroke: rgb(255, 255, 255);" x1="5.529785516204479" y1="16.000115735445206" x2="7.431300124401" y2="13.793000221252443"/>
  <line style="stroke-linecap: round; stroke: rgb(255, 255, 255);" x1="7.431300163269043" y1="13.793000221252443" x2="7.431300163269043" y2="7.848999977111816"/>
  <line style="stroke-linecap: round; stroke: rgb(255, 255, 255);" x1="7.431300163269043" y1="7.848999977111816" x2="8.535405380773172" y2="5.206999778747559"/>
  <line style="stroke-linecap: round; stroke: rgb(255, 255, 255);" x1="8.535405158996582" y1="5.206999778747559" x2="10.689999580383303" y2="3.174457806206572"/>
  <line style="stroke-linecap: round; stroke: rgb(255, 255, 255);" x1="5.53" y1="7.849" x2="9.641" y2="7.849"/>
</svg>