<?xml version="1.0" encoding="utf-8"?>
<svg id="Layer_1" data-name="Layer 1" viewBox="0 0 25 25" xmlns="http://www.w3.org/2000/svg">
  <defs>
    <style>.cls-1{fill:#141f38;}</style>
  </defs>
  <title>antenna-tower-outline</title>
  <path class="cls-1" d="M 5.814 8.516 C 5.814 6.813 6.404 5.17 7.478 3.892 C 7.6 3.764 7.538 3.55 7.366 3.51 C 7.276 3.486 7.181 3.52 7.126 3.595 C 5.981 4.957 5.352 6.704 5.352 8.516 C 5.352 10.198 5.875 11.784 6.865 13.105 C 6.968 13.25 7.189 13.229 7.263 13.068 C 7.298 12.988 7.288 12.896 7.234 12.828 C 6.304 11.589 5.814 10.098 5.814 8.516 Z" style="fill: rgb(255, 255, 255); stroke-width: 0.5px; stroke: rgb(255, 255, 255);"/>
  <path class="cls-1" d="M 17.874 3.595 C 17.77 3.451 17.55 3.475 17.477 3.637 C 17.44 3.723 17.458 3.824 17.523 3.892 C 18.596 5.17 19.187 6.813 19.187 8.516 C 19.187 10.097 18.695 11.589 17.766 12.828 C 17.664 12.972 17.756 13.175 17.933 13.193 C 18.01 13.199 18.088 13.167 18.135 13.105 C 19.125 11.784 19.648 10.198 19.648 8.516 C 19.647 6.704 19.018 4.957 17.874 3.595 Z" style="fill: rgb(255, 255, 255); stroke-width: 0.5px; stroke: rgb(255, 255, 255);"/>
  <path class="cls-1" d="M 8.299 11.721 C 8.404 11.864 8.624 11.838 8.695 11.675 C 8.728 11.6 8.718 11.512 8.668 11.447 C 8.008 10.551 7.652 9.467 7.658 8.353 C 7.651 7.242 8.004 6.159 8.664 5.264 C 8.77 5.122 8.682 4.917 8.506 4.897 C 8.424 4.888 8.343 4.922 8.293 4.989 C 7.574 5.962 7.19 7.142 7.196 8.353 C 7.19 9.565 7.577 10.746 8.299 11.721 Z" style="fill: rgb(255, 255, 255); stroke-width: 0.5px; stroke: rgb(255, 255, 255);"/>
  <path class="cls-1" d="M 17.343 8.472 C 17.347 9.539 17.023 10.578 16.414 11.451 C 16.311 11.597 16.405 11.799 16.582 11.813 C 16.665 11.82 16.744 11.783 16.792 11.717 C 18.204 9.673 18.132 6.951 16.613 4.986 C 16.497 4.85 16.278 4.891 16.22 5.059 C 16.195 5.13 16.206 5.208 16.249 5.269 C 16.96 6.186 17.344 7.313 17.343 8.472 Z" style="fill: rgb(255, 255, 255); stroke-width: 0.5px; stroke: rgb(255, 255, 255);"/>
  <path class="cls-1" d="M 9.76 10.43 C 9.937 10.431 10.048 10.238 9.96 10.085 C 9.959 10.083 9.958 10.082 9.957 10.081 C 9.322 9.012 9.356 7.673 10.045 6.638 C 10.144 6.491 10.047 6.292 9.871 6.279 C 9.789 6.274 9.709 6.312 9.664 6.381 C 8.874 7.564 8.836 9.095 9.562 10.317 C 9.604 10.388 9.679 10.43 9.76 10.43 Z" style="fill: rgb(255, 255, 255); stroke-width: 0.5px; stroke: rgb(255, 255, 255);"/>
  <path class="cls-1" d="M 15.497 8.43 C 15.498 9.012 15.342 9.583 15.043 10.082 C 14.952 10.234 15.059 10.427 15.237 10.431 C 15.319 10.433 15.396 10.39 15.439 10.319 C 16.166 9.097 16.128 7.565 15.338 6.382 C 15.239 6.234 15.018 6.249 14.94 6.41 C 14.904 6.483 14.91 6.571 14.957 6.639 C 15.31 7.169 15.499 7.794 15.497 8.43 Z" style="fill: rgb(255, 255, 255); stroke-width: 0.5px; stroke: rgb(255, 255, 255);"/>
  <path class="cls-1" d="M 13.552 9.579 C 14.494 8.769 14.208 7.243 13.035 6.831 C 11.863 6.419 10.684 7.429 10.914 8.651 C 10.981 9.012 11.17 9.341 11.449 9.579 L 8.128 21.205 C 8.08 21.376 8.234 21.536 8.406 21.493 C 8.485 21.474 8.549 21.412 8.571 21.332 L 9.314 18.733 L 15.686 18.733 L 16.429 21.332 C 16.477 21.502 16.692 21.556 16.816 21.43 C 16.873 21.369 16.894 21.285 16.872 21.205 Z M 11.347 8.355 C 11.347 7.469 12.307 6.912 13.076 7.356 C 13.806 7.776 13.852 8.811 13.165 9.297 C 13.157 9.301 13.149 9.307 13.141 9.313 C 12.753 9.573 12.247 9.573 11.86 9.313 C 11.851 9.307 11.844 9.301 11.835 9.297 C 11.529 9.081 11.347 8.73 11.347 8.355 Z M 12.5 9.969 C 12.723 9.971 12.942 9.924 13.144 9.836 L 14.5 14.582 L 10.5 14.582 L 11.855 9.836 C 12.059 9.924 12.278 9.971 12.5 9.969 Z M 10.368 15.041 L 14.029 15.041 L 9.532 17.971 Z M 9.918 18.271 L 14.67 15.175 L 15.554 18.271 Z" style="fill: rgb(255, 255, 255); stroke-width: 0.5px; stroke: rgb(255, 255, 255);"/>
</svg>