<?xml version="1.0" encoding="utf-8"?>
<svg id="Layer_1" data-name="Layer 1" viewBox="0 0 25 25" xmlns="http://www.w3.org/2000/svg">
  <defs>
    <style>.cls-1{fill:#141f38;}</style>
  </defs>
  <title>satellite-antenna-outline</title>
  <path class="cls-1" d="M 14.962 10.007 L 16.019 6.829 C 17.097 6.961 17.915 5.875 17.49 4.875 C 17.065 3.873 15.716 3.707 15.06 4.578 C 14.84 4.87 14.743 5.237 14.788 5.602 L 11.622 6.669 L 8.817 3.865 C 8.515 3.56 8.074 3.434 7.658 3.534 C 7.243 3.629 6.909 3.934 6.774 4.337 C 6.387 5.49 6.244 6.712 6.357 7.924 C 6.549 10.104 7.587 12.08 9.13 13.513 C 8.505 14.121 8.453 15.104 9.013 15.772 C 8.975 15.837 8.944 15.905 8.916 15.971 L 7.567 19.417 C 7.174 20.417 7.912 21.5 8.987 21.5 L 12.698 21.5 C 13.872 21.5 14.606 20.227 14.018 19.209 C 13.999 19.176 13.977 19.144 13.957 19.111 L 11.623 15.707 C 11.727 15.568 11.809 15.414 11.866 15.251 C 12.629 15.558 13.434 15.751 14.255 15.824 C 14.525 15.85 14.794 15.86 15.062 15.86 C 16.008 15.862 16.947 15.709 17.843 15.408 C 18.247 15.274 18.552 14.937 18.647 14.523 C 18.746 14.107 18.621 13.666 18.318 13.365 Z M 14.515 9.562 L 13.485 8.53 L 15.41 6.604 C 15.433 6.621 15.458 6.637 15.484 6.651 Z M 16.187 4.584 C 16.836 4.585 17.244 5.289 16.917 5.853 C 16.72 6.192 16.316 6.352 15.941 6.238 L 15.919 6.231 L 15.907 6.226 C 15.662 6.141 15.47 5.946 15.385 5.701 L 15.385 5.698 L 15.383 5.69 C 15.205 5.143 15.613 4.584 16.187 4.584 Z M 14.966 6.135 C 14.981 6.159 14.996 6.183 15.009 6.205 L 13.085 8.131 L 12.066 7.113 Z M 13.549 20.423 C 13.386 20.741 13.057 20.941 12.698 20.937 L 8.987 20.937 C 8.309 20.937 7.845 20.256 8.091 19.624 L 9.441 16.179 C 9.445 16.169 9.449 16.158 9.453 16.148 C 9.999 16.467 10.679 16.449 11.207 16.101 L 11.207 16.101 L 13.489 19.433 C 13.694 19.725 13.718 20.107 13.549 20.423 Z M 11.09 15.467 L 11.061 15.492 C 10.645 15.888 9.996 15.904 9.563 15.528 L 9.485 15.457 C 8.907 14.837 9.218 13.823 10.044 13.633 C 10.07 13.627 10.096 13.621 10.122 13.618 C 10.178 13.609 10.233 13.604 10.292 13.604 C 10.78 13.605 11.21 13.928 11.348 14.397 C 11.379 14.498 11.392 14.602 11.391 14.707 C 11.39 14.989 11.282 15.261 11.087 15.466 Z M 18.096 14.394 C 18.046 14.618 17.882 14.799 17.663 14.87 C 16.583 15.233 15.439 15.366 14.305 15.261 C 13.498 15.188 12.705 14.992 11.957 14.679 C 11.938 13.481 10.698 12.696 9.607 13.188 C 8.11 11.839 7.102 9.956 6.917 7.872 C 6.894 7.618 6.882 7.366 6.882 7.116 C 6.882 6.231 7.025 5.352 7.307 4.515 C 7.378 4.297 7.56 4.132 7.784 4.083 C 8.013 4.029 8.252 4.097 8.419 4.262 L 11.348 7.193 L 11.348 7.193 L 17.917 13.761 C 18.084 13.926 18.151 14.167 18.096 14.394 Z" style="fill: rgb(255, 255, 255); stroke-width: 0.5px; stroke: rgb(255, 255, 255);"/>
</svg>