<?xml version="1.0" encoding="utf-8"?>
<svg id="Layer_1" data-name="Layer 1" viewBox="0 0 25 25" xmlns="http://www.w3.org/2000/svg">
  <defs>
    <style>.cls-1{fill:#141f38;}</style>
  </defs>
  <title>antenna-tower-outline</title>
  <path d="M 12.492 4.5 C 8.076 4.5 4.5 8.084 4.5 12.5 C 4.5 16.916 8.076 20.5 12.492 20.5 C 16.916 20.5 20.5 16.916 20.5 12.5 C 20.5 8.084 16.916 4.5 12.492 4.5 Z M 18.036 9.3 L 15.676 9.3 C 15.42 8.3 15.052 7.34 14.572 6.452 C 16.044 6.956 17.268 7.98 18.036 9.3 Z M 12.5 6.132 C 13.164 7.092 13.684 8.156 14.028 9.3 L 10.972 9.3 C 11.316 8.156 11.836 7.092 12.5 6.132 Z M 6.308 14.1 C 6.18 13.588 6.1 13.052 6.1 12.5 C 6.1 11.948 6.18 11.412 6.308 10.9 L 9.012 10.9 C 8.948 11.428 8.9 11.956 8.9 12.5 C 8.9 13.044 8.948 13.572 9.012 14.1 Z M 6.964 15.7 L 9.324 15.7 C 9.58 16.7 9.948 17.66 10.428 18.548 C 8.956 18.044 7.732 17.028 6.964 15.7 Z M 9.324 9.3 L 6.964 9.3 C 7.732 7.972 8.956 6.956 10.428 6.452 C 9.948 7.34 9.58 8.3 9.324 9.3 Z M 12.5 18.868 C 11.836 17.908 11.316 16.844 10.972 15.7 L 14.028 15.7 C 13.684 16.844 13.164 17.908 12.5 18.868 Z M 14.372 14.1 L 10.628 14.1 C 10.556 13.572 10.5 13.044 10.5 12.5 C 10.5 11.956 10.556 11.42 10.628 10.9 L 14.372 10.9 C 14.444 11.42 14.5 11.956 14.5 12.5 C 14.5 13.044 14.444 13.572 14.372 14.1 Z M 14.572 18.548 C 15.052 17.66 15.42 16.7 15.676 15.7 L 18.036 15.7 C 17.268 17.02 16.044 18.044 14.572 18.548 Z M 15.988 14.1 C 16.052 13.572 16.1 13.044 16.1 12.5 C 16.1 11.956 16.052 11.428 15.988 10.9 L 18.692 10.9 C 18.82 11.412 18.9 11.948 18.9 12.5 C 18.9 13.052 18.82 13.588 18.692 14.1 Z" fill="#fff"/>
</svg>