<?xml version="1.0" encoding="utf-8"?>
<svg id="Layer_1" data-name="Layer 1" viewBox="0 0 26 16" xmlns="http://www.w3.org/2000/svg" xmlns:bx="https://boxy-svg.com">
  <defs>
    <style>.cls-1{fill:#141f38;}</style>
  </defs>
  <title>antenna-tower-outline</title>
  <polyline style="fill: rgb(216, 216, 216); stroke: rgb(0, 0, 0);" points="4.453 19.682"/>
  <path style="fill: rgb(255, 255, 255);" transform="matrix(0, -0.051233, 0.082264, 0, -23.196159, 16.203659)" d="M 164.027154449 598.014997481 A 158.028 158.028 0 1 1 162 281.972 L 162 319.468 A 120.532 120.532 0 1 0 163.546162579 560.522082646 Z" bx:shape="pie 162 440 120.532 158.028 179.265 360 1@38d25c9b"/>
  <path style="fill: rgb(255, 255, 255);" transform="matrix(0, 0.051849, 0.083254, 0, -23.631767, -0.303378)" d="M 164.003050979 596.136152085 A 156.149 156.149 0 1 1 162 283.851 L 162 320.422 A 119.578 119.578 0 1 0 163.533924841 559.568161141 Z" bx:shape="pie 162 440 119.578 156.149 179.265 360 1@db0dafda"/>
  <path style="fill: rgb(255, 255, 255);" transform="matrix(-0.032976, 0.0906, 0.0906, 0.032976, -29.856754, -25.348938)" d="M 173 468.583 A 67.417 67.417 0 1 1 129.665187718 484.355581778 L 142.331960354 499.451253574 A 47.711 47.711 0 1 0 173 488.289 Z" bx:shape="pie 173 536 47.711 67.417 0 320 1@3a732f8c"/>
  <path style="fill: rgb(255, 255, 255);" transform="matrix(0.027947, -0.076783, 0.076783, 0.027947, -31.35862, 11.854284)" d="M 253.59994709 465.874678271 A 36.715 36.715 0 1 1 230 457.285 L 230 494 Z" bx:shape="pie 230 494 0 36.715 40 0 1@f2769920"/>
</svg>