<?xml version="1.0" encoding="utf-8"?>
<svg viewBox="0 0 35 20" xmlns="http://www.w3.org/2000/svg" xmlns:bx="https://boxy-svg.com">
  <defs>
    <bx:grid x="-0.2" y="-0.2" width="100" height="100"/>
  </defs>
  <rect width="35" height="20" style="fill: rgb(143, 143, 143);"/>
  <path style="fill: rgb(216, 216, 216); stroke: rgb(0, 0, 0);" d="M 15.607 16.566" transform="matrix(1, 0, 0, 1, 52.092405, 36.092992)"/>
  <path d="M 19.749 5.031 L 22.749 10.031 L 16.749 10.031 L 19.749 5.031 Z" style="fill: rgb(255, 255, 255);" transform="matrix(0, 1, -1, 0, 24.386051, -12.702494)" bx:shape="triangle 16.749 5.031 6 5 0.5 0 1@67376db3"/>
  <line style="fill: rgb(255, 255, 255); stroke: rgb(255, 255, 255);" x1="14.355" y1="7.02" x2="9.142" y2="7.02"/>
  <line style="fill: rgb(255, 255, 255); stroke: rgb(255, 255, 255);" x1="9.142" y1="13.851" x2="25.453" y2="13.849"/>
  <path style="fill: rgb(255, 255, 255);" transform="matrix(0.060923, 0, 0, 0.063109, -4.154807, -5.162825)" d="M 221 309 A 62 62 0 1 1 221 185 L 221 201.04 A 45.96 45.96 0 1 0 221 292.96 Z" bx:shape="pie 221 247 45.96 62 180 360 1@29a501ce"/>
  <path style="fill: rgb(255, 255, 255);" transform="matrix(-0.060923, 0, 0, 0.063668, 38.686096, -5.308143)" d="M 221 309 A 62 62 0 1 1 221 185 L 221 201.04 A 45.96 45.96 0 1 0 221 292.96 Z" bx:shape="pie 221 247 45.96 62 180 360 1@29a501ce"/>
  <line style="fill: rgb(255, 255, 255); stroke-linecap: round; stroke: rgb(255, 255, 255);" x1="25.453" y1="6.973" x2="20.86" y2="6.973"/>
</svg>