<?xml version="1.0" encoding="utf-8"?>
<svg viewBox="0 0 35 20" xmlns="http://www.w3.org/2000/svg">
  <defs>
    <grid x="-0.2" y="-0.2" width="100" height="100"/>
  </defs>
  <rect width="35" height="20" style="fill: rgb(143, 143, 143);"/>
  <path d="M 7.641 -0.114 H 15.674 L 15.674 -1.78 L 19.641 0.72 L 15.674 3.22 L 15.674 1.554 H 7.641 V -0.114 Z" style="stroke: rgb(255, 255, 255); fill: rgb(255, 255, 255);" transform="matrix(-0.000046, 1, -1, -0.000046, 28.54022, -3.640967)" shape="arrow 7.641 -1.78 12 5 1.667 3.967 0 1@b2652960"/>
  <line style="stroke-linecap: round; stroke: rgb(255, 255, 255);" x1="17.453" y1="13.148" x2="17.453" y2="8.286"/>
  <line style="stroke-linecap: round; stroke: rgb(255, 255, 255);" x1="16.161" y1="9.455" x2="17.453" y2="8.286"/>
  <line style="stroke-linecap: round; stroke: rgb(252, 252, 252);" x1="6.501" y1="4" x2="6.501" y2="15.24"/>
  <line style="stroke-linecap: round; stroke: rgb(252, 252, 252);" x1="6.501" y1="15.24" x2="23.358" y2="15.24"/>
  <line style="stroke-linecap: round; stroke: rgb(252, 252, 252);" x1="23.358" y1="4" x2="23.358" y2="15.24"/>
  <rect x="6.501" y="4" width="16.857" height="2.254" style="stroke-linecap: round; fill: rgb(255, 255, 255); stroke: rgb(255, 255, 255);"/>
  <path style="fill: rgb(255, 255, 255);" transform="matrix(-0.000002, -0.038612, 0.038098, -0.000002, 0.604577, 20.275129)" d="M 259.290557962 313.261815565 A 42.297 42.297 0 1 1 203.929508189 273.77316253 L 210.297112375 293.370633105 A 21.691 21.691 0 1 0 238.687696356 313.621439852 Z" shape="pie 217 314 21.691 42.297 89 342 1@c69ae8c1"/>
  <path style="fill: rgb(255, 255, 255);" transform="matrix(-0.000002, 0.035394, 0.03424, 0.000002, 1.979225, 1.793391)" d="M 258.981724576 308.845292382 A 42.297 42.297 0 1 1 205.341366761 273.341514047 L 210.769768846 292.272601887 A 22.603 22.603 0 1 0 239.434520666 311.245387231 Z" shape="pie 217 314 22.603 42.297 83 344 1@1d906877"/>
</svg>