<?xml version="1.0" encoding="utf-8"?>
<svg version="1.1" viewBox="0 0 50 21" xmlns="http://www.w3.org/2000/svg">
  <g transform="matrix(0.033918, 0, 0, 0.033918, 8.040904, -6.459002)">
    <g transform="translate(0.000000,326.000000) scale(0.100000,-0.100000)">
      <path d="M412.4,1333.8c-99.4-35.1-206.5-136.4-257.2-239.7l-46.8-93.5l-5.8-2687.1c-5.8-3047.6-15.6-2831.3,148.1-2995c167.6-167.6-267-153.9,4740.9-153.9c3135.3,0,4468.1,5.8,4538.2,21.4c134.5,29.2,251.4,120.8,317.6,251.4l52.6,105.2l-3.9,2749.4l-5.8,2751.4l-58.4,95.5c-37,58.5-95.5,116.9-153.9,153.9l-95.5,58.5l-4551.9,3.9C1489.9,1357.2,465,1353.3,412.4,1333.8z M3372.3-1727.4v-2776.7H1945.9H519.6l-44.8,42.9l-44.8,40.9v2687.1V953.8l48.7,46.8l46.8,48.7h1424.4h1422.5V-1727.4z M6314.6,396.5v-652.8H4999.3H3684v652.8v652.8h1315.3h1315.3V396.5z M9539.5,1000.6l48.7-46.8v-2681.2v-2681.2l-48.7-46.8l-46.8-48.7H8068.3H6645.9v2776.7v2776.7h1422.5h1424.4L9539.5,1000.6z M6314.6-2545.8v-1958.3H4999.3H3684v1958.3v1958.3h1315.3h1315.3V-2545.8z" style="fill: rgb(255, 255, 255);"/>
      <path d="M1716,24.3c-189-81.8-294.2-239.7-294.2-446.2c0-140.3,31.2-228,116.9-325.4c142.3-163.7,426.7-200.7,617.7-81.8c255.3,155.9,300.1,524.2,91.6,738.5c-39,40.9-107.2,89.6-150,109.1C2000.5,63.3,1811.5,65.3,1716,24.3z M2010.2-312.8c60.4-60.4,70.2-115,33.1-183.2c-81.8-155.9-307.9-101.3-307.9,74C1735.5-267.9,1899.2-203.6,2010.2-312.8z" style="fill: rgb(255, 255, 255);"/>
      <path d="M1601-1610.5c-259.2-72.1-549.5-288.4-674.2-504.7c-148.1-255.3-202.7-592.4-138.3-849.6c105.2-417,422.8-742.4,822.3-845.7c152-39,413.1-40.9,563.1-1.9c378,97.4,678.1,378,808.7,761.9c192.9,559.2-138.3,1214-719,1418.6C2117.4-1581.3,1753-1569.6,1601-1610.5z M2146.6-1932c146.1-44.8,208.5-83.8,335.2-208.5c187.1-183.2,272.8-469.6,220.2-726.8c-37-177.3-109.1-307.9-239.7-430.6c-294.2-278.6-728.8-307.9-1052.2-70.1c-397.5,294.2-444.3,874.9-97.4,1229.5c99.4,99.4,265,196.8,389.7,226C1823.2-1883.3,2020-1893,2146.6-1932z" style="fill: rgb(255, 255, 255);"/>
      <path d="M7891,1c-255.3-132.5-339.1-450.1-183.2-689.8c93.5-140.3,229.9-210.4,418.9-210.4c196.8,0,360.5,115,442.3,305.9c37,91.6,27.3,298.1-19.5,389.7C8426.9,32.1,8128.7,125.7,7891,1z M8226.2-312.8c60.4-60.4,70.2-115,33.1-183.2c-81.8-155.9-307.9-101.3-307.9,74C7951.4-267.9,8115.1-203.6,8226.2-312.8z" style="fill: rgb(255, 255, 255);"/>
      <path d="M7756.6-1632c-296.2-101.3-528-304-662.5-582.6c-87.7-183.2-116.9-309.8-116.9-502.7c0-506.6,358.5-966.5,849.6-1093.2c152-39,413.1-40.9,563.1-1.9c313.7,79.9,608,317.6,740.5,596.3c118.9,253.3,150,479.4,97.4,728.8c-91.6,426.7-413.1,769.7-822.3,876.8C8222.3-1563.7,7931.9-1571.5,7756.6-1632z M8424.9-1951.5c155.9-58.5,344.9-237.7,422.8-397.5c202.7-418.9,27.3-906.1-399.5-1104.8c-506.6-237.7-1106.8,116.9-1153.6,684c-31.2,381.9,239.7,763.8,611.9,857.4C8031.3-1881.4,8298.3-1900.8,8424.9-1951.5z" style="fill: rgb(255, 255, 255);"/>
      <path d="M4122.5-1916.4c-60.4-33.1-87.7-76-87.7-142.2c0-76,58.5-140.3,140.3-155.9c35.1-5.8,436.5-9.7,888.6-5.8l826.2,5.8l46.8,54.6c62.4,74,60.4,140.3-9.7,210.4l-56.5,56.5h-855.4C4434.2-1895,4149.8-1900.8,4122.5-1916.4z" style="fill: rgb(255, 255, 255);"/>
      <path d="M4077.7-2931.6c-52.6-56.5-54.6-150-5.8-210.5l37-46.7l863.2-5.8c594.3-3.9,880.8,1.9,915.8,15.6c95.5,40.9,120.8,155.9,54.6,241.6l-39,50.7H5011h-892.5L4077.7-2931.6z" style="fill: rgb(255, 255, 255);"/>
    </g>
  </g>
</svg>
