<?xml version="1.0" encoding="utf-8"?>
<svg viewBox="0 0 50 30" xmlns="http://www.w3.org/2000/svg" xmlns:bx="https://boxy-svg.com">
  <defs>
    <bx:grid x="-0.2" y="-0.2" width="100" height="100"/>
  </defs>
  <path style="fill: rgb(216, 216, 216); stroke: rgb(0, 0, 0);" d="M 15.607 16.566" transform="matrix(1, 0, 0, 1, 52.092405, 36.092992)"/>
  <path d="M 45.048 11.475 L 51.891 22.88 L 38.205 22.88 L 45.048 11.475 Z" style="fill: rgb(255, 255, 255);" transform="matrix(0, 1, 1, 0, 9.552953, -36.948029)" bx:shape="triangle 38.205 11.475 13.686 11.405 0.5 0 1@8d568898"/>
  <line style="fill: rgb(255, 255, 255); stroke-width: 4.1px; stroke: rgb(255, 255, 255);" x1="35.948" y1="8.015" x2="30.427" y2="8.015" transform="matrix(-1, 0, 0, -1, 66.375002, 16.030001)"/>
  <line style="fill: rgb(255, 255, 255); stroke-width: 4.1px; stroke: rgb(255, 255, 255);" x1="14.253" y1="26.66" x2="35.923" y2="26.665" transform="matrix(-1, 0, 0, -1, 50.176001, 53.325001)"/>
  <path style="fill: rgb(255, 255, 255);" transform="matrix(-0.168157, 0, 0, 0.174191, 72.669159, -25.676855)" d="M 221 312.415 A 65.415 65.415 0 1 1 221 181.585 L 221 205.372 A 41.628 41.628 0 1 0 221 288.628 Z" bx:shape="pie 221 247 41.628 65.415 180 360 1@63bfe6bc"/>
  <path style="fill: rgb(255, 255, 255);" transform="matrix(0.168157, 0, 0, 0.173833, -22.669159, -25.57478)" d="M 221 312.415 A 65.415 65.415 0 1 1 221 181.585 L 221 205.372 A 41.628 41.628 0 1 0 221 288.628 Z" bx:shape="pie 221 247 41.628 65.415 180 360 1@63bfe6bc"/>
  <line style="fill: rgb(255, 255, 255); stroke-linecap: round; stroke-width: 4.1px; stroke: rgb(255, 255, 255);" x1="17.273" y1="8.015" x2="14.513" y2="8.015" transform="matrix(-1, 0, 0, -1, 31.786, 16.030001)"/>
</svg>