<?xml version="1.0" encoding="utf-8"?>
<svg version="1.1" id="Layer_1" x="0px" y="0px" viewBox="0 0 64 64" style="enable-background:new 0 0 503.607 503.607;" xmlns="http://www.w3.org/2000/svg">
  <g transform="matrix(0.103256, 0, 0, 0.103256, 5.999413, 5.99988)">
    <g>
      <path d="M428.066,0h-33.574c-4.636,0-8.393,3.758-8.393,8.393v394.383c0,27.786-22.628,50.47-50.361,50.47H218.229 c-27.755,0-50.361-22.606-50.361-50.361v-16.681c9.277,0,16.787-7.51,16.787-16.787v-33.678h25.18 c4.636,0,8.393-3.758,8.393-8.393V184.657c0-4.636-3.758-8.393-8.393-8.393h-8.393v-41.967c0-4.636-3.758-8.393-8.393-8.393 h-8.393V58.756c0-4.636-3.758-8.393-8.393-8.393h-8.393V25.18c0-13.902-11.278-25.18-25.18-25.18s-25.18,11.278-25.18,25.18 v25.182h-8.393c-4.636,0-8.393,3.758-8.393,8.393v67.148h-8.393c-4.636,0-8.393,3.758-8.393,8.393v41.967h-8.393 c-4.636,0-8.393,3.758-8.393,8.393v142.689c0,4.636,3.758,8.393,8.393,8.393h25.18v33.678c0,9.277,7.51,16.787,16.787,16.787 v16.681c0,55.542,45.18,100.721,100.721,100.721h117.508c55.527,0,100.721-45.265,100.721-100.83V8.393 C436.459,3.758,432.701,0,428.066,0z M134.295,25.18c0-4.631,3.763-8.393,8.393-8.393s8.393,3.763,8.393,8.393v25.18h-16.787 V25.18z M117.508,67.149h50.361v58.754h-50.361V67.149z M100.721,142.69h8.393h67.148h8.393v33.574h-83.934V142.69z M83.934,193.051h8.393h100.721h8.393v125.902h-25.081c-0.033,0-0.066-0.005-0.099-0.005h-67.148 c-0.033,0-0.066,0.005-0.099,0.005H83.934V193.051z M167.869,335.739v33.678h-7.127c-0.414-0.063-0.835-0.106-1.267-0.106h-33.574 c-0.432,0-0.853,0.043-1.267,0.106h-7.127v-33.678H167.869z M419.672,402.776c0,46.3-37.685,84.044-83.934,84.044H218.229 c-46.271,0-83.934-37.664-83.934-83.934v-16.681h16.787v16.681c0,37.026,30.122,67.148,67.148,67.148h117.508 c37.013,0,67.148-30.209,67.148-67.257V16.787h16.787V402.776z" style="stroke-width: 9.68467px; stroke: rgb(255, 255, 255); fill: rgb(255, 255, 255);"/>
    </g>
  </g>
  <g/>
  <g/>
  <g/>
  <g/>
  <g/>
  <g/>
  <g/>
  <g/>
  <g/>
  <g/>
  <g/>
  <g/>
  <g/>
  <g/>
  <g/>
</svg>