<?xml version="1.0" encoding="utf-8"?>
<svg id="Layer_1" data-name="Layer 1" viewBox="0 0 64 64" xmlns="http://www.w3.org/2000/svg">
  <defs>
    <style>.cls-1{fill:#141f38;}</style>
  </defs>
  <path class="cls-1" d="M 53.536 14.822 C 51.905 9.12 47.446 4.662 41.744 3.029 C 41.193 2.873 40.68 3.372 40.821 3.927 C 40.886 4.184 41.083 4.387 41.339 4.461 C 46.542 5.951 50.609 10.018 52.101 15.221 C 52.256 15.772 52.95 15.948 53.349 15.538 C 53.533 15.347 53.604 15.073 53.531 14.817 Z" style="stroke-width: 2px; stroke: rgb(255, 255, 255);"/>
  <path class="cls-1" d="M 41.857 9.409 C 41.339 9.163 40.75 9.57 40.797 10.143 C 40.819 10.407 40.98 10.64 41.22 10.755 C 43.235 11.712 44.859 13.335 45.816 15.349 C 46.061 15.866 46.775 15.923 47.099 15.453 C 47.25 15.234 47.273 14.952 47.159 14.712 C 46.054 12.386 44.182 10.514 41.857 9.409 Z" style="stroke-width: 2px; stroke: rgb(255, 255, 255);"/>
  <path class="cls-1" d="M 33.232 30.692 L 36.021 22.309 C 38.867 22.657 41.024 19.793 39.901 17.153 C 38.778 14.514 35.22 14.079 33.496 16.371 C 32.914 17.143 32.656 18.112 32.776 19.072 L 24.426 21.886 L 17.029 14.489 C 16.229 13.687 15.071 13.357 13.969 13.619 C 12.877 13.869 11.993 14.672 11.639 15.736 C 10.618 18.779 10.244 22.001 10.539 25.196 C 11.045 30.946 13.782 36.158 17.852 39.94 C 16.206 41.539 16.071 44.136 17.541 45.897 C 17.445 46.065 17.359 46.241 17.289 46.422 L 13.73 55.509 C 12.696 58.148 14.642 61 17.476 61 L 27.263 61 C 30.361 60.999 32.296 57.645 30.747 54.963 C 30.695 54.873 30.641 54.786 30.582 54.702 L 24.429 45.723 C 24.703 45.358 24.919 44.954 25.068 44.523 C 27.084 45.331 29.208 45.84 31.37 46.035 C 32.082 46.098 32.792 46.129 33.499 46.129 C 35.994 46.133 38.472 45.729 40.837 44.934 C 41.901 44.58 42.704 43.696 42.954 42.603 C 43.216 41.501 42.887 40.343 42.084 39.544 Z M 32.056 29.516 L 29.337 26.797 L 34.415 21.719 C 34.479 21.761 34.545 21.8 34.61 21.839 Z M 36.463 16.385 C 38.181 16.387 39.252 18.247 38.392 19.734 C 37.874 20.629 36.807 21.051 35.817 20.752 L 35.762 20.73 L 35.726 20.72 C 35.079 20.492 34.574 19.98 34.352 19.332 L 34.352 19.324 L 34.344 19.303 C 33.877 17.863 34.951 16.385 36.466 16.386 Z M 33.248 20.48 C 33.283 20.543 33.323 20.605 33.361 20.666 L 28.283 25.744 L 25.596 23.058 Z M 29.51 58.159 C 29.078 59.001 28.209 59.527 27.265 59.519 L 17.476 59.519 C 15.69 59.518 14.462 57.721 15.114 56.058 L 18.672 46.97 C 18.683 46.943 18.693 46.916 18.706 46.889 C 20.145 47.73 21.938 47.68 23.33 46.761 L 23.33 46.761 L 29.352 55.549 C 29.891 56.321 29.952 57.33 29.51 58.159 Z M 23.019 45.091 L 22.949 45.16 C 21.849 46.201 20.14 46.24 18.995 45.25 L 18.79 45.068 C 17.265 43.43 18.083 40.756 20.263 40.253 C 20.332 40.237 20.401 40.224 20.471 40.213 C 20.618 40.19 20.766 40.179 20.915 40.179 C 22.204 40.18 23.339 41.031 23.703 42.267 C 23.78 42.533 23.819 42.809 23.816 43.086 C 23.816 43.832 23.529 44.55 23.013 45.09 Z M 41.501 42.259 C 41.37 42.852 40.936 43.331 40.358 43.519 C 37.511 44.475 34.495 44.826 31.504 44.548 C 29.372 44.356 27.283 43.838 25.308 43.012 C 25.258 39.853 21.99 37.779 19.109 39.078 C 15.165 35.522 12.507 30.555 12.015 25.059 C 11.955 24.391 11.925 23.725 11.925 23.062 C 11.923 20.731 12.3 18.415 13.043 16.205 C 13.234 15.629 13.713 15.196 14.306 15.067 C 14.906 14.925 15.538 15.104 15.976 15.54 L 23.705 23.269 L 23.705 23.269 L 41.027 40.591 C 41.466 41.028 41.646 41.661 41.501 42.264 Z" style="stroke-width: 2px; stroke: rgb(255, 255, 255);"/>
</svg>