<?xml version="1.0" encoding="utf-8"?>
<svg id="Layer_1" data-name="Layer 1" viewBox="0 0 64 64" xmlns="http://www.w3.org/2000/svg">
  <defs>
    <style>.cls-1{fill:#141f38;}</style>
  </defs>
  <title>antenna-tower-outline</title>
  <path class="cls-1" d="M 12.683 20.49 C 12.683 15.569 14.389 10.824 17.49 7.131 C 17.844 6.762 17.665 6.145 17.167 6.023 C 16.906 5.961 16.634 6.059 16.474 6.273 C 13.169 10.209 11.35 15.257 11.35 20.49 C 11.35 25.35 12.861 29.934 15.72 33.748 C 16.017 34.165 16.656 34.104 16.87 33.638 C 16.974 33.41 16.941 33.143 16.786 32.947 C 14.1 29.367 12.683 25.061 12.683 20.49 Z" style="stroke-width: 2px; stroke: rgb(255, 255, 255);"/>
  <path class="cls-1" d="M 47.526 6.273 C 47.224 5.859 46.588 5.928 46.38 6.396 C 46.269 6.644 46.322 6.936 46.512 7.131 C 49.61 10.825 51.319 15.569 51.319 20.49 C 51.319 25.055 49.898 29.367 47.215 32.947 C 46.917 33.365 47.183 33.949 47.695 33.997 C 47.92 34.019 48.142 33.925 48.281 33.748 C 51.14 29.934 52.651 25.35 52.651 20.49 C 52.65 15.257 50.831 10.209 47.526 6.273 Z" style="stroke-width: 2px; stroke: rgb(255, 255, 255);"/>
  <path class="cls-1" d="M 19.862 29.748 C 20.167 30.16 20.802 30.087 21.008 29.617 C 21.102 29.398 21.074 29.147 20.931 28.955 C 19.02 26.37 17.994 23.234 18.011 20.019 C 17.993 16.808 19.012 13.68 20.918 11.096 C 21.225 10.684 20.97 10.094 20.461 10.034 C 20.223 10.007 19.99 10.108 19.846 10.3 C 17.769 13.112 16.658 16.521 16.676 20.019 C 16.662 23.52 17.779 26.934 19.862 29.748 Z" style="stroke-width: 2px; stroke: rgb(255, 255, 255);"/>
  <path class="cls-1" d="M 45.989 20.365 C 46.003 23.442 45.064 26.448 43.305 28.971 C 43.01 29.39 43.283 29.973 43.792 30.017 C 44.03 30.038 44.26 29.931 44.397 29.735 C 48.48 23.832 48.271 15.968 43.881 10.289 C 43.547 9.899 42.916 10.017 42.746 10.503 C 42.673 10.707 42.707 10.933 42.833 11.109 C 44.885 13.759 45.996 17.014 45.989 20.365 Z" style="stroke-width: 2px; stroke: rgb(255, 255, 255);"/>
  <path class="cls-1" d="M 24.084 26.02 C 24.596 26.02 24.917 25.466 24.662 25.022 C 24.659 25.018 24.657 25.014 24.654 25.011 C 22.82 21.923 22.918 18.055 24.909 15.065 C 25.195 14.641 24.914 14.065 24.403 14.029 C 24.165 14.014 23.938 14.124 23.804 14.322 C 21.526 17.74 21.412 22.163 23.513 25.694 C 23.633 25.897 23.849 26.02 24.084 26.02 Z" style="stroke-width: 2px; stroke: rgb(255, 255, 255);"/>
  <path class="cls-1" d="M 40.659 20.243 C 40.663 21.924 40.211 23.572 39.349 25.014 C 39.084 25.453 39.395 26.013 39.908 26.024 C 40.146 26.028 40.369 25.904 40.49 25.7 C 42.594 22.169 42.48 17.743 40.199 14.326 C 39.913 13.899 39.274 13.943 39.049 14.405 C 38.944 14.618 38.962 14.872 39.095 15.068 C 40.12 16.598 40.666 18.402 40.659 20.243 Z" style="stroke-width: 2px; stroke: rgb(255, 255, 255);"/>
  <path class="cls-1" d="M 35.036 23.561 C 37.76 21.223 36.934 16.814 33.547 15.623 C 30.162 14.432 26.756 17.351 27.418 20.881 C 27.613 21.924 28.158 22.869 28.964 23.561 L 19.37 57.15 C 19.229 57.643 19.675 58.104 20.173 57.979 C 20.403 57.922 20.586 57.745 20.65 57.516 L 22.797 50.007 L 41.204 50.007 L 43.349 57.516 C 43.491 58.01 44.113 58.165 44.468 57.796 C 44.634 57.625 44.695 57.378 44.63 57.15 Z M 28.67 20.026 C 28.667 17.461 31.441 15.858 33.663 17.138 C 35.771 18.352 35.907 21.343 33.921 22.745 C 33.897 22.759 33.873 22.775 33.851 22.792 C 32.732 23.544 31.269 23.544 30.148 22.792 C 30.127 22.775 30.104 22.759 30.08 22.745 C 29.196 22.121 28.67 21.107 28.67 20.025 Z M 32.001 24.687 C 32.64 24.689 33.275 24.559 33.862 24.303 L 37.779 38.014 L 26.22 38.014 L 30.137 24.303 C 30.726 24.559 31.36 24.689 32.001 24.687 Z M 25.841 39.343 L 36.418 39.343 L 23.427 47.805 Z M 24.539 48.668 L 38.27 39.728 L 40.823 48.669 Z" style="stroke-width: 2px; stroke: rgb(255, 255, 255);"/>
</svg>