<?xml version="1.0" encoding="utf-8"?>
<svg viewBox="0 0 35 20" xmlns="http://www.w3.org/2000/svg" xmlns:bx="https://boxy-svg.com">
  <defs>
    <bx:grid x="0.026" y="0" width="100" height="100"/>
  </defs>
  <rect width="35" height="20" style="fill: rgb(143, 143, 143);"/>
  <path style="fill: rgb(216, 216, 216); stroke: rgb(0, 0, 0);" d="M 15.607 16.566" transform="matrix(1, 0, 0, 1, 52.092405, 36.092992)"/>
  <path d="M -2.95 9.658 H 1.753 L 1.753 8.158 L 6.05 10.658 L 1.753 13.158 L 1.753 11.658 H -2.95 V 9.658 Z" style="fill: rgb(255, 255, 255);" transform="matrix(0.99999, 0.004484, -0.004484, 0.99999, 20.977762, -3.559794)" bx:shape="arrow -2.95 8.158 9 5 2 4.297 0 1@bff226b6"/>
  <line style="stroke-width: 2px; stroke: rgb(252, 252, 252);" x1="8.009" y1="7.096" x2="15.009" y2="7.096"/>
  <path d="M -2.95 9.658 H 1.753 L 1.753 8.158 L 6.05 10.658 L 1.753 13.158 L 1.753 11.658 H -2.95 V 9.658 Z" style="fill: rgb(255, 255, 255);" transform="matrix(0.99999, 0.004484, -0.004484, 0.99999, 20.977762, 2.230107)" bx:shape="arrow -2.95 8.158 9 5 2 4.297 0 1@bff226b6"/>
  <line style="stroke-width: 2px; stroke: rgb(252, 252, 252);" x1="8.009" y1="12.886" x2="15.009" y2="12.886"/>
  <line style="stroke-width: 2px; stroke-linecap: round; stroke: rgb(252, 252, 252);" x1="15.009" y1="12.886" x2="17.969" y2="7.096"/>
</svg>