<?xml version="1.0" encoding="utf-8"?>
<svg width="22px" height="24" viewBox="0 0 22 24" xmlns="http://www.w3.org/2000/svg">
  <polygon style="stroke: rgb(255, 255, 255); fill: rgb(255, 255, 255);" points="2.746000051498413 4.507999897003174 6.113999843597412 20.017000198364258 9.598999977111816 21.179000854492188 13.085000038146973 21.062999725341797 15.873000144958496 20.017000198364258 19.298999786376953 4.565999984741211 16.33799934387207 3.055999994277954 10.993000030517578 2.4749999046325684 6.578999996185303 2.940000057220459"/>
  <path d="M 11 2 C 6.507 2 2 3.035 2 4.62 C 2 4.958 5.2 20.027 5.27 20.359 C 6.291 21.453 8.631 22 10.97 22 C 13.311 22 15.649 21.453 16.672 20.359 C 16.745 20.023 20 4.969 20 4.624 C 20 2.563 13.396 2 11 2 Z M 11 3.55 C 14.79 3.55 17.863 4.172 17.863 4.939 C 17.863 5.706 14.79 6.328 11 6.328 C 7.21 6.328 4.138 5.707 4.138 4.939 C 4.138 4.172 7.21 3.55 11 3.55 Z M 15.022 19.499 C 14.323 19.943 12.846 20.333 10.97 20.333 C 9.097 20.333 7.621 19.944 6.922 19.502 L 6.919 19.484 C 5.522 12.89 4.746 9.177 4.314 7.083 C 7.509 8.296 14.488 8.295 17.678 7.081 C 16.897 10.807 15.487 17.349 15.022 19.499 Z M 7.937 13.318 L 7.495 13.048 L 9.136 13.042 L 9.838 14.431 L 9.383 14.164 C 8.732 15.119 8.458 15.634 8.666 16.232 C 7.026 14.733 7.207 14.413 7.937 13.318 Z M 8.497 12.231 L 9.2 11.049 C 9.376 10.733 10.326 10.987 10.719 11.798 L 10.002 13.003 L 8.497 12.231 Z M 10.903 16.543 L 9.347 16.543 C 8.962 16.554 8.742 15.659 9.319 14.948 L 10.904 14.948 L 10.904 16.543 Z M 10.955 12.472 L 11.427 12.231 C 10.84 11.241 10.487 10.77 9.824 10.649 C 12.03 10.042 12.157 10.308 12.924 11.467 L 13.393 11.238 L 12.682 12.616 L 10.955 12.472 Z M 13.708 12.476 L 14.528 13.704 C 14.74 14 14.037 14.645 13.082 14.567 L 12.247 13.316 L 13.708 12.476 Z M 12.314 16.514 L 12.31 17 L 11.385 15.653 L 12.334 14.428 L 12.328 14.928 C 13.547 14.938 14.162 14.883 14.6 14.403 C 14.092 16.487 13.752 16.514 12.314 16.514 Z" style="fill: rgb(127, 127, 127);"/>
</svg>