<?xml version="1.0" encoding="utf-8"?>
<svg width="60px" height="40px" xmlns="http://www.w3.org/2000/svg">
  <defs>
    <path id="pomp" d="M0,12A16.143,16.143 0 0,1 -14,-4A7,8 0 0,1 -7,-12A6,8 0 0,1 -1,-5A1,1 0 1,0 1,-5A6,8 0 0,1 7,-12A7,8 0 0,1 14,-4A16.143,16.143 0 0,1 0,12z" fill="#ee3e34" transform="rotate(34.695) scale(4.625)"/>
  </defs>
  <rect width="60" height="40" fill="#0155a5"/>
  <g fill="#fff" transform="matrix(8.571428, 0, 0, 5.714286, 0, 0)">
    <path d="M0,3V5L2,7H4z"/>
    <path d="M1,0H0V1L6,7H7V6z"/>
    <path d="M3,0H5L7,2V4z"/>
  </g>
  <path d="M 27.224 21.641 C 24.863 21.327 23.164 19.324 23.248 16.957 C 23.293 15.663 24.258 14.614 25.401 14.614 C 26.301 14.605 27.033 15.486 27.104 16.664 C 27.095 16.889 27.337 17.03 27.539 16.917 C 27.632 16.865 27.691 16.768 27.695 16.664 C 27.849 15.486 28.643 14.605 29.542 14.614 C 30.686 14.614 31.576 15.663 31.53 16.957 C 31.447 19.324 29.606 21.327 27.224 21.641 Z" fill="#ee3e34" style="" transform="matrix(0.832053, 0.554696, -0.554696, 0.832053, 14.655026, -12.147763)"/>
  <path d="M 11.853 11.338 C 9.493 11.023 7.794 9.021 7.877 6.653 C 7.923 5.359 8.887 4.311 10.031 4.311 C 10.931 4.301 11.662 5.182 11.733 6.36 C 11.725 6.586 11.966 6.727 12.168 6.614 C 12.262 6.561 12.321 6.465 12.325 6.36 C 12.479 5.182 13.273 4.301 14.172 4.311 C 15.316 4.311 16.206 5.359 16.16 6.653 C 16.077 9.021 14.235 11.023 11.853 11.338 Z" fill="#ee3e34" style="" transform="matrix(0.832053, 0.554696, -0.554696, 0.832053, 6.358565, -5.352186)"/>
  <path d="M 44.618 33.286 C 42.258 32.972 40.558 30.969 40.642 28.602 C 40.687 27.308 41.651 26.259 42.795 26.259 C 43.695 26.25 44.426 27.131 44.498 28.309 C 44.489 28.534 44.731 28.675 44.932 28.562 C 45.025 28.51 45.085 28.413 45.089 28.309 C 45.243 27.131 46.037 26.25 46.936 26.259 C 48.08 26.259 48.97 27.308 48.924 28.602 C 48.841 30.969 47 32.972 44.618 33.286 Z" fill="#ee3e34" style="" transform="matrix(0.832053, 0.554696, -0.554696, 0.832053, 24.03573, -19.840405)"/>
  <path d="M 41.704 8.735 C 39.344 8.42 37.644 6.418 37.728 4.05 C 37.774 2.756 38.738 1.708 39.881 1.708 C 40.781 1.698 41.513 2.579 41.584 3.757 C 41.575 3.983 41.818 4.123 42.019 4.011 C 42.112 3.958 42.172 3.862 42.175 3.757 C 42.329 2.579 43.123 1.698 44.022 1.708 C 45.166 1.708 46.056 2.756 46.01 4.05 C 45.927 6.418 44.086 8.42 41.704 8.735 Z" fill="#ee3e34" style="" transform="matrix(0.832053, 0.554696, -0.554696, 0.832053, 9.927985, -22.347287)"/>
  <path d="M 16.228 37.586 C 13.868 37.272 12.169 35.269 12.252 32.901 C 12.298 31.608 13.262 30.559 14.406 30.559 C 15.306 30.549 16.037 31.43 16.108 32.608 C 16.1 32.834 16.342 32.974 16.543 32.862 C 16.636 32.809 16.696 32.713 16.7 32.608 C 16.853 31.43 17.648 30.549 18.547 30.559 C 19.69 30.559 20.58 31.608 20.534 32.901 C 20.451 35.269 18.61 37.272 16.228 37.586 Z" fill="#ee3e34" style="" transform="matrix(0.832053, 0.554696, -0.554696, 0.832053, 21.652911, -3.370432)"/>
  <path d="M 51.07 15.144 C 48.709 14.83 47.01 12.827 47.093 10.46 C 47.139 9.166 48.103 8.117 49.247 8.117 C 50.147 8.108 50.878 8.989 50.95 10.167 C 50.941 10.392 51.182 10.533 51.384 10.42 C 51.477 10.368 51.537 10.272 51.541 10.167 C 51.695 8.989 52.489 8.108 53.388 8.117 C 54.532 8.117 55.422 9.166 55.376 10.46 C 55.292 12.827 53.451 14.83 51.07 15.144 Z" fill="#ee3e34" style="" transform="matrix(0.832053, 0.554696, -0.554696, 0.832053, 15.055949, -26.465938)"/>
  <path d="M 5.232 30.134 C 2.872 29.82 1.173 27.817 1.256 25.449 C 1.302 24.156 2.266 23.107 3.41 23.107 C 4.31 23.097 5.041 23.978 5.112 25.156 C 5.104 25.382 5.345 25.523 5.547 25.41 C 5.641 25.358 5.7 25.261 5.704 25.156 C 5.858 23.978 6.652 23.097 7.551 23.107 C 8.695 23.107 9.585 24.156 9.538 25.449 C 9.455 27.817 7.614 29.82 5.232 30.134 Z" fill="#ee3e34" style="" transform="matrix(0.832053, 0.554696, -0.554696, 0.832053, 15.672578, 1.477445)"/>
</svg>