<?xml version="1.0" encoding="utf-8"?>
<svg width="910" height="630" xmlns="http://www.w3.org/2000/svg">
  <defs>
    <path id="pomp" d="M0,12A16.143,16.143 0 0,1 -14,-4A7,8 0 0,1 -7,-12A6,8 0 0,1 -1,-5A1,1 0 1,0 1,-5A6,8 0 0,1 7,-12A7,8 0 0,1 14,-4A16.143,16.143 0 0,1 0,12z" fill="#ee3e34" transform="rotate(34.695) scale(4.625)"/>
  </defs>
  <rect width="910" height="630" fill="#0155a5"/>
  <g fill="#fff" transform="scale(130,90)">
    <path d="M0,3V5L2,7H4z"/>
    <path d="M1,0H0V1L6,7H7V6z"/>
    <path d="M3,0H5L7,2V4z"/>
  </g>
  <path d="M 431.242 352.417 C 394.85 347.524 367.681 316.359 367.681 279.506 C 367.681 259.372 381.909 243.051 399.461 243.051 C 413.27 242.906 424.976 256.613 426.702 274.949 C 426.702 278.457 430.485 280.65 433.512 278.896 C 434.916 278.082 435.782 276.577 435.782 274.949 C 437.507 256.613 449.213 242.906 463.022 243.051 C 480.574 243.051 494.802 259.372 494.802 279.506 C 494.802 316.359 467.633 347.524 431.242 352.417 Z" fill="#ee3e34" style="" transform="matrix(0.822194, 0.569208, -0.569208, 0.822194, 246.149623, -192.527141)"/>
  <path d="M 198.126 190.137 C 161.734 185.245 134.566 154.079 134.565 117.227 C 134.565 97.093 148.794 80.771 166.346 80.771 C 180.155 80.627 191.86 94.334 193.586 112.67 C 193.586 116.178 197.369 118.37 200.396 116.616 C 201.801 115.802 202.666 114.298 202.666 112.67 C 204.392 94.334 216.098 80.627 229.907 80.771 C 247.459 80.771 261.688 97.093 261.688 117.227 C 261.687 154.079 234.518 185.245 198.126 190.137 Z" fill="#ee3e34" style="" transform="matrix(0.822194, 0.569208, -0.569208, 0.822194, 112.329284, -88.690669)"/>
  <path d="M 695.045 535.823 C 658.654 530.931 631.485 499.765 631.484 462.913 C 631.484 442.779 645.713 426.457 663.265 426.457 C 677.074 426.312 688.779 440.019 690.505 458.356 C 690.505 461.864 694.288 464.056 697.315 462.302 C 698.72 461.488 699.585 459.984 699.585 458.356 C 701.311 440.019 713.016 426.312 726.825 426.457 C 744.377 426.457 758.606 442.779 758.606 462.913 C 758.605 499.765 731.436 530.931 695.045 535.823 Z" fill="#ee3e34" style="" transform="matrix(0.822194, 0.569208, -0.569208, 0.822194, 397.451671, -310.075409)"/>
  <path d="M 650.855 149.139 C 614.464 144.246 587.295 113.081 587.295 76.228 C 587.295 56.094 601.523 39.773 619.075 39.773 C 632.884 39.628 644.59 53.335 646.315 71.671 C 646.315 75.179 650.099 77.371 653.126 75.617 C 654.53 74.803 655.396 73.299 655.396 71.671 C 657.121 53.335 668.827 39.628 682.636 39.773 C 700.188 39.773 714.416 56.094 714.416 76.228 C 714.416 113.081 687.247 144.246 650.855 149.139 Z" fill="#ee3e34" style="" transform="matrix(0.822194, 0.569208, -0.569208, 0.822194, 169.490958, -353.677238)"/>
  <path d="M 264.471 603.544 C 228.079 598.651 200.91 567.486 200.91 530.633 C 200.91 510.499 215.139 494.178 232.69 494.178 C 246.499 494.033 258.205 507.74 259.931 526.076 C 259.931 529.584 263.714 531.776 266.741 530.022 C 268.145 529.208 269.011 527.704 269.011 526.076 C 270.736 507.74 282.442 494.033 296.251 494.178 C 313.803 494.178 328.031 510.499 328.031 530.633 C 328.031 567.486 300.862 598.651 264.471 603.544 Z" fill="#ee3e34" style="" transform="matrix(0.822194, 0.569208, -0.569208, 0.822194, 359.440118, -52.947841)"/>
  <path d="M 792.897 250.09 C 756.505 245.198 729.336 214.032 729.336 177.18 C 729.336 157.046 743.564 140.724 761.116 140.724 C 774.925 140.58 786.631 154.287 788.356 172.623 C 788.356 176.131 792.14 178.323 795.167 176.569 C 796.571 175.755 797.437 174.251 797.437 172.623 C 799.162 154.287 810.868 140.58 824.677 140.724 C 842.229 140.724 856.457 157.046 856.457 177.18 C 856.457 214.032 829.288 245.198 792.897 250.09 Z" fill="#ee3e34" style="" transform="matrix(0.822194, 0.569208, -0.569208, 0.822194, 252.208833, -416.578348)"/>
  <path d="M 97.699 486.176 C 61.308 481.284 34.139 450.118 34.139 413.265 C 34.139 393.132 48.367 376.81 65.919 376.81 C 79.728 376.665 91.434 390.372 93.159 408.708 C 93.159 412.216 96.943 414.409 99.97 412.655 C 101.374 411.841 102.24 410.336 102.24 408.708 C 103.965 390.372 115.671 376.665 129.48 376.81 C 147.032 376.81 161.26 393.132 161.26 413.265 C 161.26 450.118 134.091 481.284 97.699 486.176 Z" fill="#ee3e34" style="" transform="matrix(0.822194, 0.569208, -0.569208, 0.822194, 262.980428, 21.110751)"/>
</svg>