<?xml version="1.0" encoding="utf-8"?>
<svg width="60px" height="40px" xmlns="http://www.w3.org/2000/svg">
  <g fill-rule="evenodd" transform="matrix(0.066667, 0, 0, 0.066667, 0, 0)">
    <path d="M0 0h900v600H0z" fill="#fff"/>
    <path d="M0 0h900v200H0z" fill="#ed2024"/>
    <path d="M0 400h900v200H0z" fill="#278e43"/>
  </g>
  <path d="M 30 10 L 30.749 15.084 L 32.964 10.447 L 32.182 15.526 L 35.665 11.747 L 33.42 16.37 L 37.862 13.786 L 34.354 17.542 L 39.361 16.382 L 34.902 18.937 L 40.028 19.305 L 35.014 20.432 L 39.804 22.294 L 34.681 21.893 L 38.709 25.084 L 33.931 23.191 L 36.84 27.428 L 32.832 24.211 L 34.363 29.116 L 31.482 24.861 L 31.499 30 L 30 25.084 L 28.501 30 L 28.518 24.861 L 25.637 29.116 L 27.168 24.211 L 23.16 27.428 L 26.069 23.191 L 21.291 25.084 L 25.319 21.893 L 20.196 22.294 L 24.986 20.432 L 19.972 19.305 L 25.098 18.937 L 20.639 16.382 L 25.646 17.542 L 22.138 13.786 L 26.58 16.37 L 24.335 11.747 L 27.818 15.526 L 27.036 10.447 L 29.251 15.084 Z" fill="#febd11" fill-rule="evenodd"/>
</svg>