<?xml version="1.0" encoding="utf-8"?>
<svg viewBox="0 0 53 40" xmlns="http://www.w3.org/2000/svg">
  <defs>
    <linearGradient gradientUnits="userSpaceOnUse" x1="26.5" y1="0" x2="26.5" y2="40" id="gradient-0" gradientTransform="matrix(0.754717, 0, 0, 1.325, 0, 0)">
      <stop offset="0" style="stop-color: rgb(255, 0, 0);"/>
      <stop offset="1" style="stop-color: rgb(255, 240, 0);"/>
    </linearGradient>
  </defs>
  <rect width="40" height="53" style="fill: url(#gradient-0);" transform="matrix(0, 1, -1, 0, 53, 0)"/>
  <path style="fill: rgb(216, 216, 216); stroke: rgb(0, 0, 0);" d="M 35.362 21.026"/>
  <circle style="" cx="25.679" cy="31.305" r="2"/>
  <path style="" d="M 23.999 23.143 L 24.041 26.413 L 27.437 26.413 L 27.437 23.184 C 27.451 21.465 27.963 20.141 28.275 19.704 C 29.571 17.892 30.785 17.008 31.964 15.177 C 32.894 13.732 33.029 12.755 32.929 10.859 C 32.83 8.982 32.079 7.485 30.309 6.006 C 28.551 4.538 26.129 4.034 23.37 4.989 C 22.333 5.348 20.962 6.443 20.058 7.589 C 19.93 7.752 20.671 8.185 22.447 9.265 C 22.693 9.415 23.714 7.946 24.796 7.713 C 25.597 7.541 27.21 7.313 28.365 8.281 C 29.337 9.096 29.703 9.585 29.742 11.906 C 29.774 13.785 28.404 14.666 27.059 16.309 C 26.257 17.288 25.643 17.885 24.921 18.95 C 23.744 20.685 24.024 21.971 23.999 23.143 Z"/>
  <path style="fill: rgb(255, 255, 255); stroke: rgb(255, 255, 255);"/>
</svg>