<?xml version="1.0" encoding="utf-8"?>
<svg viewBox="0 0 60 40" xmlns="http://www.w3.org/2000/svg">
  <defs>
    <linearGradient gradientUnits="userSpaceOnUse" x1="26.5" y1="0" x2="26.5" y2="40" id="gradient-0" gradientTransform="matrix(0.754717, 0, 0, 1.5, 0, 0)">
      <stop offset="0" style="stop-color: rgb(255, 0, 0);"/>
      <stop offset="1" style="stop-color: rgb(255, 240, 0);"/>
    </linearGradient>
  </defs>
  <rect width="40" height="60" style="fill: url(#gradient-0);" transform="matrix(0, 1, -1, 0, 60, 0)"/>
  <path style="fill: rgb(216, 216, 216); stroke: rgb(0, 0, 0);" d="M 40.032 21.026"/>
  <circle style="" cx="25.679" cy="31.305" r="2" transform="matrix(1.132076, 0, 0, 1, 0, 0)"/>
  <path style="" d="M 27.169 23.143 L 27.216 26.413 L 31.061 26.413 L 31.061 23.184 C 31.077 21.465 31.656 20.141 32.009 19.704 C 33.477 17.892 34.851 17.008 36.186 15.177 C 37.238 13.732 37.391 12.755 37.278 10.859 C 37.166 8.982 36.316 7.485 34.312 6.006 C 32.322 4.538 29.58 4.034 26.457 4.989 C 25.283 5.348 23.731 6.443 22.707 7.589 C 22.562 7.752 23.401 8.185 25.412 9.265 C 25.69 9.415 26.846 7.946 28.071 7.713 C 28.978 7.541 30.804 7.313 32.111 8.281 C 33.212 9.096 33.626 9.585 33.67 11.906 C 33.706 13.785 32.155 14.666 30.633 16.309 C 29.725 17.288 29.03 17.885 28.212 18.95 C 26.88 20.685 27.197 21.971 27.169 23.143 Z"/>
  <path style="fill: rgb(255, 255, 255); stroke: rgb(255, 255, 255);"/>
</svg>