<?xml version="1.0" encoding="utf-8"?>
<svg width="71px" height="48px" viewBox="0 0 60 40" version="1.1" xmlns="http://www.w3.org/2000/svg">
  <title>slovenia@2x</title>
  <desc>Created with Sketch.</desc>
  <g id="Flags" stroke="none" stroke-width="1" fill="none" fill-rule="evenodd" transform="matrix(0.857143, 0, 0, 0.851245, -640.500122, -476.901489)">
    <g transform="translate(70.000000, 70.000000)" fill-rule="nonzero" id="slovenia">
      <g transform="translate(677.000000, 490.000000)">
        <g id="Sierra_leone">
          <path d="M 0.25 0.24 L 0.25 15.88 L 70.25 15.88 L 70.25 6.88 C 70.25 3.213 70.25 0.24 70.25 0.24 L 6.89 0.24 C 3.223 0.24 0.25 0.24 0.25 0.24 Z" id="Shape" fill="#FFFFFF"/>
          <polygon id="Shape" fill="#4758A9" points="0.25 31.58 70.25 31.58 70.25 15.91 0.25 15.91"/>
          <path d="M 0.25 40.59 C 0.25 44.257 0.25 47.23 0.25 47.23 L 63.61 47.23 C 67.277 47.23 70.25 47.23 70.25 47.23 L 70.25 31.59 L 0.25 31.59 L 0.25 40.59 Z" id="Shape" fill="#ED5565"/>
          <path d="M 33.39 5.07 L 33.39 15.26 C 33.39 23.26 24.39 26.5 24.05 26.64 C 23.838 26.713 23.615 26.751 23.39 26.75 C 23.165 26.751 22.942 26.713 22.73 26.64 C 22.35 26.51 13.47 23.31 13.39 15.29 L 13.39 5.07 L 33.39 5.07 Z M 17.39 7.07 L 17.39 15.26 C 17.39 19.48 21.71 21.83 23.39 22.59 C 25.07 21.83 29.39 19.46 29.39 15.26 L 29.39 7.07 L 17.39 7.07 Z" id="Shape" fill="#ED5565"/>
          <path d="M 15.39 5.07 L 15.39 15.26 C 15.46 21.97 23.39 24.75 23.39 24.75 C 23.39 24.75 31.39 21.97 31.39 15.26 L 31.39 5.07 L 15.39 5.07 Z" id="Shape" fill="#4758A9"/>
          <path d="M 16 18.27 C 17.87 22.81 23.38 24.75 23.38 24.75 C 23.38 24.75 28.92 22.81 30.77 18.29 L 23.38 10.9 L 16 18.27 Z" id="Shape" fill="#FFFFFF"/>
        </g>
      </g>
    </g>
  </g>
</svg>