<?xml version="1.0" encoding="utf-8"?>
<svg viewBox="0 0 35 25" xmlns="http://www.w3.org/2000/svg" xmlns:bx="https://boxy-svg.com">
  <rect x="9" y="4" width="17" height="17" style="fill: rgb(143, 143, 143); stroke-width: 0px;"/>
  <path d="M 17.15 15.117 m -3.994 0 a 3.994 3.159 0 1 0 7.988 0 a 3.994 3.159 0 1 0 -7.988 0 Z M 17.15 15.117 m -2.741 0 a 2.741 2.404 0 0 1 5.482 0 a 2.741 2.404 0 0 1 -5.482 0 Z" style="fill: rgb(255, 255, 255);" bx:shape="ring 17.15 15.117 2.741 2.404 3.994 3.159 1@961fb4da"/>
  <path style="fill: rgb(216, 216, 216); stroke: rgb(0, 0, 0);" d="M 15.607 16.566"/>
  <path style="stroke-miterlimit: 1; fill: rgb(255, 255, 255);" transform="matrix(1.093053, 0.000016, -0.000017, 1.029397, -295.234131, -316.335602)" d="M 285.13 319.322 A 2.816 2.816 0 1 1 285.13 324.678 A 2.681 2.681 0 0 0 285.13 319.322 Z" bx:shape="crescent 286 322 2.816 216 0.8 1@67c472fb"/>
  <path style="stroke-miterlimit: 1; fill: rgb(255, 255, 255);" transform="matrix(-1.093053, 0.000016, 0.000017, 1.029397, 329.882446, -316.335602)" d="M 285.13 319.322 A 2.816 2.816 0 1 1 285.13 324.678 A 2.681 2.681 0 0 0 285.13 319.322 Z" bx:shape="crescent 286 322 2.816 216 0.8 1@67c472fb"/>
  <path d="M 17.313 9.925 m -3.648 0 a 3.648 2.656 0 1 0 7.296 0 a 3.648 2.656 0 1 0 -7.296 0 Z M 17.313 9.925 m -2.504 0 a 2.504 2.022 0 0 1 5.008 0 a 2.504 2.022 0 0 1 -5.008 0 Z" style="fill: rgb(255, 255, 255);" bx:shape="ring 17.313 9.925 2.504 2.022 3.648 2.656 1@32e2fd92"/>
  <path style="stroke-miterlimit: 1; fill: rgb(255, 255, 255);" transform="matrix(0.998418, 0.000013, -0.000016, 0.865556, -268.025513, -268.77475)" d="M 285.13 319.322 A 2.816 2.816 0 1 1 285.13 324.678 A 2.681 2.681 0 0 0 285.13 319.322 Z" bx:shape="crescent 286 322 2.816 216 0.8 1@67c472fb"/>
  <path style="stroke-miterlimit: 1; fill: rgb(255, 255, 255);" transform="matrix(-0.998418, 0.000013, 0.000016, 0.865556, 302.969421, -268.77475)" d="M 285.13 319.322 A 2.816 2.816 0 1 1 285.13 324.678 A 2.681 2.681 0 0 0 285.13 319.322 Z" bx:shape="crescent 286 322 2.816 216 0.8 1@67c472fb"/>
</svg>