<?xml version="1.0" encoding="utf-8"?>
<svg viewBox="0 0 35 25" xmlns="http://www.w3.org/2000/svg">
  <rect x="9" y="4" width="17" height="17" style="fill: rgb(143, 143, 143); stroke-width: 0px;"/>
  <rect x="13" y="17.023" width="8.5" height="1" style="stroke-width: 0px; fill: rgb(255, 255, 255);"/>
  <path style="stroke-width: 0px; fill: rgb(255, 255, 255);" transform="matrix(0.745538, -0.489925, 0.496911, 0.756169, -301.735352, -15.181572)" d="M 281.147 213.202 A 4.226 4.226 0 1 1 281.147 220.798 A 3.799 3.799 0 0 0 281.147 213.202 Z" shape="crescent 283 217 4.226 232 0.72 1@238e332b"/>
  <path style="stroke-width: 0px; fill: rgb(255, 255, 255);" transform="matrix(0.890883, -0.046699, 0.03048, 0.792544, -242.094055, -148.475632)" d="M 282.412 212.815 A 4.226 4.226 0 1 1 282.412 221.185 A 4.801 4.801 0 0 0 282.412 212.815 Z" shape="crescent 283 217 4.226 196 0.72 1@b7421e2d"/>
  <polygon style="stroke-width: 0px; fill: rgb(255, 255, 255);" points="13.041999816894531 17.038000106811523 18.034000396728516 11.907999992370605 19.72599983215332 12.946000099182129 15.45199966430664 17.458999633789062"/>
  <path style="fill: rgb(216, 216, 216); stroke: rgb(0, 0, 0);" d="M 15.607 16.566"/>
  <polygon style="stroke-miterlimit: 1; stroke-width: 0px; fill: rgb(255, 255, 255);" points="14.975000381469727 7.044000148773193 13.5649995803833 8.079999923706055 14.04699993133545 8.72700023651123 15.67300033569336 7.658999919891357"/>
</svg>