<?xml version="1.0" encoding="utf-8"?>
<svg viewBox="0 0 35 25" xmlns="http://www.w3.org/2000/svg" xmlns:bx="https://boxy-svg.com">
  <rect x="9" y="4" width="17" height="17" style="fill: rgb(143, 143, 143); stroke-width: 0px;"/>
  <path style="fill: rgb(216, 216, 216); stroke: rgb(0, 0, 0);" d="M 15.607 16.566"/>
  <path style="stroke-linecap: round; stroke-miterlimit: 1; fill: rgb(255, 255, 255);" transform="matrix(0.001858, -0.082526, -0.096242, 0, 68.226723, 35.501034)" d="M 292.535127495 575.470176414 A 45.222 45.222 0 1 1 302.633263387 577.160024821 L 303.33069234 563.852287641 A 31.896 31.896 0 1 0 296.208270899 562.660403054 Z" bx:shape="pie 305 532 31.896 45.222 196 183 1@d43effa1"/>
  <path style="stroke-miterlimit: 1; fill: rgb(255, 255, 255);" transform="matrix(1.196503, -0.000018, -0.000019, -1.198871, -324.421051, 396.334686)" d="M 285.13 319.322 A 2.816 2.816 0 1 1 285.13 324.678 A 2.681 2.681 0 0 0 285.13 319.322 Z" bx:shape="crescent 286 322 2.816 216 0.8 1@67c472fb"/>
  <path style="stroke-miterlimit: 1; fill: rgb(255, 255, 255);" transform="matrix(-1.196503, -0.000018, 0.000019, -1.198871, 359.858337, 396.334686)" d="M 285.13 319.322 A 2.816 2.816 0 1 1 285.13 324.678 A 2.681 2.681 0 0 0 285.13 319.322 Z" bx:shape="crescent 286 322 2.816 216 0.8 1@67c472fb"/>
  <path style="stroke-linecap: round; stroke-miterlimit: 1; fill: rgb(255, 255, 255);" transform="matrix(-0.001858, -0.082526, 0.097224, 0, -33.57061, 39.750061)" d="M 281.708948176 570.762819672 A 45.222 45.222 0 1 1 328.291051824 493.237180328 L 321.427654437 504.659791777 A 31.896 31.896 0 1 0 288.572345563 559.340208223 Z" bx:shape="pie 305 532 31.896 45.222 211 31 1@bdb05ed3"/>
  <polygon style="fill: rgb(255, 255, 255);" points="13.199 14.649 13.237 10.427 15.643 10.465 15.697 17.552"/>
  <path style="stroke-linecap: round; stroke-miterlimit: 1; fill: rgb(255, 255, 255);" transform="matrix(-0.001858, -0.082526, 0.074131, 0, -20.939512, 39.75005)" d="M 261.121286666 542.940191963 A 45.222 45.222 0 0 1 338.073277095 501.158670161 L 328.327257667 510.246980307 A 31.896 31.896 0 0 0 274.051447515 539.716340782 Z" bx:shape="pie 305 532 31.896 45.222 256 47 1@4bfc4b59"/>
</svg>