<?xml version="1.0" encoding="utf-8"?>
<svg viewBox="0 0 45 45" xmlns="http://www.w3.org/2000/svg">
  <path d="M 33.029 31.5 L 18.029 31.5 C 17.339 31.5 16.799 31.15 16.439 30.62 L 9.972 22.368 L 16.439 14.39 C 16.799 13.86 17.339 13.5 18.029 13.5 L 33.029 13.5 C 34.129 13.5 35.029 14.4 35.029 15.5 L 35.029 29.5 C 35.029 30.6 34.129 31.5 33.029 31.5 Z M 30.029 18.91 L 28.619 17.5 L 25.029 21.09 L 21.439 17.5 L 20.029 18.91 L 23.619 22.5 L 20.029 26.09 L 21.439 27.5 L 25.029 23.91 L 28.619 27.5 L 30.029 26.09 L 26.439 22.5 L 30.029 18.91 Z" style="fill: rgb(255, 255, 255);" transform="matrix(-1, 0, 0, -1, 45.000999, 45)"/>
</svg>