<?xml version="1.0" encoding="utf-8"?>
<svg viewBox="0 0 45 45" xmlns="http://www.w3.org/2000/svg">
  <path d="M 22.49 12 C 16.694 12 12 16.704 12 22.5 C 12 28.296 16.694 33 22.49 33 C 28.296 33 33 28.296 33 22.5 C 33 16.704 28.296 12 22.49 12 Z M 29.766 18.3 L 26.669 18.3 C 26.333 16.988 25.85 15.728 25.22 14.562 C 27.152 15.224 28.758 16.568 29.766 18.3 Z M 22.5 14.142 C 23.372 15.402 24.054 16.799 24.506 18.3 L 20.495 18.3 C 20.946 16.799 21.629 15.402 22.5 14.142 Z M 14.373 24.6 C 14.205 23.928 14.1 23.225 14.1 22.5 C 14.1 21.776 14.205 21.072 14.373 20.4 L 17.922 20.4 C 17.838 21.093 17.775 21.786 17.775 22.5 C 17.775 23.214 17.838 23.907 17.922 24.6 L 14.373 24.6 Z M 15.234 26.7 L 18.332 26.7 C 18.668 28.013 19.151 29.273 19.781 30.438 C 17.849 29.777 16.242 28.443 15.234 26.7 Z M 18.332 18.3 L 15.234 18.3 C 16.242 16.557 17.849 15.224 19.781 14.562 C 19.151 15.728 18.668 16.988 18.332 18.3 Z M 22.5 30.858 C 21.629 29.598 20.946 28.202 20.495 26.7 L 24.506 26.7 C 24.054 28.202 23.372 29.598 22.5 30.858 Z M 24.957 24.6 L 20.043 24.6 C 19.949 23.907 19.875 23.214 19.875 22.5 C 19.875 21.786 19.949 21.083 20.043 20.4 L 24.957 20.4 C 25.052 21.083 25.125 21.786 25.125 22.5 C 25.125 23.214 25.052 23.907 24.957 24.6 Z M 25.22 30.438 C 25.85 29.273 26.333 28.013 26.669 26.7 L 29.766 26.7 C 28.758 28.433 27.152 29.777 25.22 30.438 Z M 27.078 24.6 C 27.162 23.907 27.225 23.214 27.225 22.5 C 27.225 21.786 27.162 21.093 27.078 20.4 L 30.627 20.4 C 30.795 21.072 30.9 21.776 30.9 22.5 C 30.9 23.225 30.795 23.928 30.627 24.6 L 27.078 24.6 Z" style="fill: rgb(255, 255, 255);"/>
</svg>